name analog
datacolumns 19
datarows 78
range 0.543 0.5815
endheader
time	ground_force_vx	ground_force_vy	ground_force_vz	ground_force_px	ground_force_py	ground_force_pz	l_ground_force_vx	l_ground_force_vy	l_ground_force_vz	l_ground_force_px	l_ground_force_py	l_ground_force_pz	ground_torque_x	ground_torque_y	ground_torque_z	l_ground_torque_x	l_ground_torque_y	l_ground_torque_z
0.543	-0.0	-0.0	-0.0	0.4350811839103699	-6.795833587646484	-710.0031127929688	-0.0	-0.0	-0.0	-0.0	-0.0	-0.0	-0.0	-0.0	-0.0	-0.0	-0.0	-0.0
0.5435	-0.0	-0.0	-0.0	0.5571033954620361	-6.662959575653076	-708.529541015625	-0.0	-0.0	-0.0	-0.0	-0.0	-0.0	-0.0	-0.0	-0.0	-0.0	-0.0	-0.0
0.544	-0.0	-0.0	-0.0	0.1283933967351913	-6.584814548492432	-709.5814208984375	-0.0	-0.0	-0.0	-0.0	-0.0	-0.0	-0.0	-0.0	-0.0	-0.0	-0.0	-0.0
0.5445	-0.0	-0.0	-0.0	0.4421957433223724	-6.189183235168457	-708.01318359375	-0.0	-0.0	-0.0	-0.0	-0.0	-0.0	-0.0	-0.0	-0.0	-0.0	-0.0	-0.0
0.545	-0.0	-0.0	-0.0	-0.0963023006916046	-5.661511898040772	-708.0833740234375	-0.0	-0.0	-0.0	-0.0	-0.0	-0.0	-0.0	-0.0	-0.0	-0.0	-0.0	-0.0
0.5455	-0.0	-0.0	-0.0	-0.3355565667152405	-4.831024169921875	-706.952880859375	-0.0	-0.0	-0.0	-0.0	-0.0	-0.0	-0.0	-0.0	-0.0	-0.0	-0.0	-0.0
0.546	-0.0	-0.0	-0.0	-0.4278656244277954	-4.3961181640625	-705.4559936523438	-0.0	-0.0	-0.0	-0.0	-0.0	-0.0	-0.0	-0.0	-0.0	-0.0	-0.0	-0.0
0.5465	-0.0	-0.0	-0.0	-0.8921051025390625	-3.672672271728516	-706.1624755859375	-0.0	-0.0	-0.0	-0.0	-0.0	-0.0	-0.0	-0.0	-0.0	-0.0	-0.0	-0.0
0.547	-0.0	-0.0	-0.0	-0.0289448797702789	-3.426305055618286	-703.8463134765625	-0.0	-0.0	-0.0	-0.0	-0.0	-0.0	-0.0	-0.0	-0.0	-0.0	-0.0	-0.0
0.5475	-0.0	-0.0	-0.0	-0.3651703000068664	-2.673912048339844	-701.4073486328125	-0.0	-0.0	-0.0	-0.0	-0.0	-0.0	-0.0	-0.0	-0.0	-0.0	-0.0	-0.0
0.548	-0.0	-0.0	-0.0	-0.5163813829421997	-2.176858901977539	-701.8092651367188	-0.0	-0.0	-0.0	-0.0	-0.0	-0.0	-0.0	-0.0	-0.0	-0.0	-0.0	-0.0
0.5485	-0.0	-0.0	-0.0	-0.5250171422958374	-1.6130839586257937	-703.6907348632812	-0.0	-0.0	-0.0	-0.0	-0.0	-0.0	-0.0	-0.0	-0.0	-0.0	-0.0	-0.0
0.549	-0.0	-0.0	-0.0	-0.3760210573673248	-1.1778570413589478	-702.439208984375	-0.0	-0.0	-0.0	-0.0	-0.0	-0.0	-0.0	-0.0	-0.0	-0.0	-0.0	-0.0
0.5495	-0.0	-0.0	-0.0	-0.336651861667633	-0.2774772346019745	-705.34033203125	-0.0	-0.0	-0.0	-0.0	-0.0	-0.0	-0.0	-0.0	-0.0	-0.0	-0.0	-0.0
0.55	-0.0	-0.0	-0.0	-0.4956796169281006	0.2178086936473846	-704.6337280273438	-0.0	-0.0	-0.0	-0.0	-0.0	-0.0	-0.0	-0.0	-0.0	-0.0	-0.0	-0.0
0.5505	-0.0	-0.0	-0.0	-1.4667373895645142	1.3767932653427124	-706.5946655273438	-0.0	-0.0	-0.0	-0.0	-0.0	-0.0	-0.0	-0.0	-0.0	-0.0	-0.0	-0.0
0.551	-0.0	-0.0	-0.0	-2.4086837768554688	1.336956024169922	-706.5952758789062	-0.0	-0.0	-0.0	-0.0	-0.0	-0.0	-0.0	-0.0	-0.0	-0.0	-0.0	-0.0
0.5515	-0.0	-0.0	-0.0	-2.854736328125	1.7724566459655762	-704.9069213867188	-0.0	-0.0	-0.0	-0.0	-0.0	-0.0	-0.0	-0.0	-0.0	-0.0	-0.0	-0.0
0.552	-0.0	-0.0	-0.0	-3.5189321041107178	2.0402419567108154	-704.0448608398438	-0.0	-0.0	-0.0	-0.0	-0.0	-0.0	-0.0	-0.0	-0.0	-0.0	-0.0	-0.0
0.5525	-0.0	-0.0	-0.0	-4.628258228302002	1.930826425552368	-704.7130126953125	-0.0	-0.0	-0.0	-0.0	-0.0	-0.0	-0.0	-0.0	-0.0	-0.0	-0.0	-0.0
0.553	-0.0	-0.0	-0.0	-4.489442825317383	2.1692490577697754	-703.69189453125	-0.0	-0.0	-0.0	-0.0	-0.0	-0.0	-0.0	-0.0	-0.0	-0.0	-0.0	-0.0
0.5535	-0.0	-0.0	-0.0	-4.916141986846924	2.1295745372772217	-701.4154052734375	-0.0	-0.0	-0.0	-0.0	-0.0	-0.0	-0.0	-0.0	-0.0	-0.0	-0.0	-0.0
0.554	-0.0	-0.0	-0.0	-5.291884899139404	1.4848712682724	-701.0997314453125	-0.0	-0.0	-0.0	-0.0	-0.0	-0.0	-0.0	-0.0	-0.0	-0.0	-0.0	-0.0
0.5545	-0.0	-0.0	-0.0	-4.974759578704834	1.2876797914505005	-699.3421630859375	-0.0	-0.0	-0.0	-0.0	-0.0	-0.0	-0.0	-0.0	-0.0	-0.0	-0.0	-0.0
0.555	-0.0	-0.0	-0.0	-5.1860222816467285	0.5628652572631836	-699.5382080078125	-0.0	-0.0	-0.0	-0.0	-0.0	-0.0	-0.0	-0.0	-0.0	-0.0	-0.0	-0.0
0.5555	-0.0	-0.0	-0.0	-6.00498628616333	0.6053415536880493	-697.4567260742188	-0.0	-0.0	-0.0	-0.0	-0.0	-0.0	-0.0	-0.0	-0.0	-0.0	-0.0	-0.0
0.556	-0.0	-0.0	-0.0	-6.195521354675293	-0.4764018058776855	-696.3978881835938	-0.0	-0.0	-0.0	-0.0	-0.0	-0.0	-0.0	-0.0	-0.0	-0.0	-0.0	-0.0
0.5565	-0.0	-0.0	-0.0	-6.315612316131592	-0.4548107087612152	-695.0944213867188	-0.0	-0.0	-0.0	-0.0	-0.0	-0.0	-0.0	-0.0	-0.0	-0.0	-0.0	-0.0
0.557	-0.0	-0.0	-0.0	-6.552426815032959	-1.0076844692230225	-694.5103759765625	-0.0	-0.0	-0.0	-0.0	-0.0	-0.0	-0.0	-0.0	-0.0	-0.0	-0.0	-0.0
0.5575	-0.0	-0.0	-0.0	-6.137493133544922	-1.5062087774276731	-694.2446899414062	-0.0	-0.0	-0.0	-0.0	-0.0	-0.0	-0.0	-0.0	-0.0	-0.0	-0.0	-0.0
0.558	-0.0	-0.0	-0.0	-5.7137370109558105	-2.049999237060547	-695.3757934570312	-0.0	-0.0	-0.0	-0.0	-0.0	-0.0	-0.0	-0.0	-0.0	-0.0	-0.0	-0.0
0.5585	-0.0	-0.0	-0.0	-5.669312000274658	-2.049999237060547	-694.5459594726562	-0.0	-0.0	-0.0	-0.0	-0.0	-0.0	-0.0	-0.0	-0.0	-0.0	-0.0	-0.0
0.559	-0.0	-0.0	-0.0	-5.718286514282227	-2.2909727096557617	-695.182373046875	-0.0	-0.0	-0.0	-0.0	-0.0	-0.0	-0.0	-0.0	-0.0	-0.0	-0.0	-0.0
0.5595	-0.0	-0.0	-0.0	-6.342708587646484	-2.7542879581451416	-695.4112548828125	-0.0	-0.0	-0.0	-0.0	-0.0	-0.0	-0.0	-0.0	-0.0	-0.0	-0.0	-0.0
0.56	-0.0	-0.0	-0.0	-6.667900562286377	-2.972849607467652	-694.3173217773438	-0.0	-0.0	-0.0	-0.0	-0.0	-0.0	-0.0	-0.0	-0.0	-0.0	-0.0	-0.0
0.5605	-0.0	-0.0	-0.0	-6.68217658996582	-4.010868072509766	-693.4517822265625	-0.0	-0.0	-0.0	-0.0	-0.0	-0.0	-0.0	-0.0	-0.0	-0.0	-0.0	-0.0
0.561	-0.0	-0.0	-0.0	-6.227614879608154	-4.244048118591309	-693.9744873046875	-0.0	-0.0	-0.0	-0.0	-0.0	-0.0	-0.0	-0.0	-0.0	-0.0	-0.0	-0.0
0.5615	-0.0	-0.0	-0.0	-6.756606101989746	-4.35043478012085	-695.0916748046875	-0.0	-0.0	-0.0	-0.0	-0.0	-0.0	-0.0	-0.0	-0.0	-0.0	-0.0	-0.0
0.562	-0.0	-0.0	-0.0	-6.195925712585449	-4.407753944396973	-696.0844116210938	-0.0	-0.0	-0.0	-0.0	-0.0	-0.0	-0.0	-0.0	-0.0	-0.0	-0.0	-0.0
0.5625	-0.0	-0.0	-0.0	-6.204306125640869	-4.359045505523682	-695.6375122070312	-0.0	-0.0	-0.0	-0.0	-0.0	-0.0	-0.0	-0.0	-0.0	-0.0	-0.0	-0.0
0.5630000000000001	-0.0	-0.0	-0.0	-5.936644077301025	-4.132139205932617	-696.7911987304688	-0.0	-0.0	-0.0	-0.0	-0.0	-0.0	-0.0	-0.0	-0.0	-0.0	-0.0	-0.0
0.5635	-0.0	-0.0	-0.0	-5.004003524780273	-4.432473659515381	-695.73193359375	-0.0	-0.0	-0.0	-0.0	-0.0	-0.0	-0.0	-0.0	-0.0	-0.0	-0.0	-0.0
0.5640000000000001	-0.0	-0.0	-0.0	-4.825507164001465	-5.266988277435303	-695.8927001953125	-0.0	-0.0	-0.0	-0.0	-0.0	-0.0	-0.0	-0.0	-0.0	-0.0	-0.0	-0.0
0.5645	-0.0	-0.0	-0.0	-4.241543292999268	-5.655740261077881	-696.8560791015625	-0.0	-0.0	-0.0	-0.0	-0.0	-0.0	-0.0	-0.0	-0.0	-0.0	-0.0	-0.0
0.5650000000000001	-0.0	-0.0	-0.0	-3.1629669666290283	-6.797926425933838	-698.2366943359375	-0.0	-0.0	-0.0	-0.0	-0.0	-0.0	-0.0	-0.0	-0.0	-0.0	-0.0	-0.0
0.5655	-0.0	-0.0	-0.0	-2.984583616256714	-8.312917709350586	-696.0547485351562	-0.0	-0.0	-0.0	-0.0	-0.0	-0.0	-0.0	-0.0	-0.0	-0.0	-0.0	-0.0
0.5660000000000001	-0.0	-0.0	-0.0	-3.1709158420562744	-9.649718284606934	-697.0786743164062	-0.0	-0.0	-0.0	-0.0	-0.0	-0.0	-0.0	-0.0	-0.0	-0.0	-0.0	-0.0
0.5665	-0.0	-0.0	-0.0	-2.831305980682373	-10.833245277404783	-697.6915283203125	-0.0	-0.0	-0.0	-0.0	-0.0	-0.0	-0.0	-0.0	-0.0	-0.0	-0.0	-0.0
0.5670000000000001	-0.0	-0.0	-0.0	-2.7655258178710938	-11.747694969177246	-696.6934204101562	-0.0	-0.0	-0.0	-0.0	-0.0	-0.0	-0.0	-0.0	-0.0	-0.0	-0.0	-0.0
0.5675	-0.0	-0.0	-0.0	-3.6245501041412354	-12.737971305847168	-697.2075805664062	-0.0	-0.0	-0.0	-0.0	-0.0	-0.0	-0.0	-0.0	-0.0	-0.0	-0.0	-0.0
0.5680000000000001	-0.0	-0.0	-0.0	-4.152092456817627	-13.443489074707031	-696.7939453125	-0.0	-0.0	-0.0	-0.0	-0.0	-0.0	-0.0	-0.0	-0.0	-0.0	-0.0	-0.0
0.5685	-0.0	-0.0	-0.0	-5.520341396331787	-13.532770156860352	-697.470703125	-0.0	-0.0	-0.0	-0.0	-0.0	-0.0	-0.0	-0.0	-0.0	-0.0	-0.0	-0.0
0.5690000000000001	-0.0	-0.0	-0.0	-6.876689910888672	-14.528255462646484	-700.002685546875	-0.0	-0.0	-0.0	-0.0	-0.0	-0.0	-0.0	-0.0	-0.0	-0.0	-0.0	-0.0
0.5695	-0.0	-0.0	-0.0	-8.173870086669922	-15.575624465942385	-699.2083129882812	-0.0	-0.0	-0.0	-0.0	-0.0	-0.0	-0.0	-0.0	-0.0	-0.0	-0.0	-0.0
0.5700000000000001	-0.0	-0.0	-0.0	-9.41537380218506	-15.920762062072754	-701.0911865234375	-0.0	-0.0	-0.0	-0.0	-0.0	-0.0	-0.0	-0.0	-0.0	-0.0	-0.0	-0.0
0.5705	-0.0	-0.0	-0.0	-9.106739044189451	-16.36631965637207	-702.4173583984375	-0.0	-0.0	-0.0	-0.0	-0.0	-0.0	-0.0	-0.0	-0.0	-0.0	-0.0	-0.0
0.5710000000000001	-0.0	-0.0	-0.0	-8.356976509094238	-17.127429962158203	-703.7823486328125	-0.0	-0.0	-0.0	-0.0	-0.0	-0.0	-0.0	-0.0	-0.0	-0.0	-0.0	-0.0
0.5715	-0.0	-0.0	-0.0	-7.527596950531006	-18.31273651123047	-705.5192260742188	-0.0	-0.0	-0.0	-0.0	-0.0	-0.0	-0.0	-0.0	-0.0	-0.0	-0.0	-0.0
0.5720000000000001	-0.0	-0.0	-0.0	-7.020655155181885	-19.121994018554688	-705.681396484375	-0.0	-0.0	-0.0	-0.0	-0.0	-0.0	-0.0	-0.0	-0.0	-0.0	-0.0	-0.0
0.5725	-0.0	-0.0	-0.0	-6.574493885040283	-20.013277053833008	-707.60986328125	-0.0	-0.0	-0.0	-0.0	-0.0	-0.0	-0.0	-0.0	-0.0	-0.0	-0.0	-0.0
0.5730000000000001	-0.0	-0.0	-0.0	-5.880960464477539	-19.6839656829834	-707.5017700195312	-0.0	-0.0	-0.0	-0.0	-0.0	-0.0	-0.0	-0.0	-0.0	-0.0	-0.0	-0.0
0.5735	-0.0	-0.0	-0.0	-5.7506489753723145	-19.9652099609375	-707.7725830078125	-0.0	-0.0	-0.0	-0.0	-0.0	-0.0	-0.0	-0.0	-0.0	-0.0	-0.0	-0.0
0.5740000000000001	-0.0	-0.0	-0.0	-5.291009426116943	-19.636253356933597	-708.77685546875	-0.0	-0.0	-0.0	-0.0	-0.0	-0.0	-0.0	-0.0	-0.0	-0.0	-0.0	-0.0
0.5745	-0.0	-0.0	-0.0	-5.702741622924805	-19.51283264160156	-708.1524658203125	-0.0	-0.0	-0.0	-0.0	-0.0	-0.0	-0.0	-0.0	-0.0	-0.0	-0.0	-0.0
0.5750000000000001	-0.0	-0.0	-0.0	-5.990415096282959	-20.01309967041016	-707.5301513671875	-0.0	-0.0	-0.0	-0.0	-0.0	-0.0	-0.0	-0.0	-0.0	-0.0	-0.0	-0.0
0.5755	-0.0	-0.0	-0.0	-5.826777935028076	-20.232601165771484	-706.0328369140625	-0.0	-0.0	-0.0	-0.0	-0.0	-0.0	-0.0	-0.0	-0.0	-0.0	-0.0	-0.0
0.5760000000000001	-0.0	-0.0	-0.0	-5.483181953430176	-19.51303482055664	-704.5078735351562	-0.0	-0.0	-0.0	-0.0	-0.0	-0.0	-0.0	-0.0	-0.0	-0.0	-0.0	-0.0
0.5765	-0.0	-0.0	-0.0	-4.21491289138794	-18.34796714782715	-702.8536376953125	-0.0	-0.0	-0.0	-0.0	-0.0	-0.0	-0.0	-0.0	-0.0	-0.0	-0.0	-0.0
0.577	-0.0	-0.0	-0.0	-2.478688716888428	-17.16719627380371	-700.1411743164062	-0.0	-0.0	-0.0	-0.0	-0.0	-0.0	-0.0	-0.0	-0.0	-0.0	-0.0	-0.0
0.5775	-0.0	-0.0	-0.0	-1.6057891845703125	-16.103839874267578	-696.3067626953125	-0.0	-0.0	-0.0	-0.0	-0.0	-0.0	-0.0	-0.0	-0.0	-0.0	-0.0	-0.0
0.578	-0.0	-0.0	-0.0	-2.0808193683624268	-15.798787117004396	-694.0233764648438	-0.0	-0.0	-0.0	-0.0	-0.0	-0.0	-0.0	-0.0	-0.0	-0.0	-0.0	-0.0
0.5785	-0.0	-0.0	-0.0	-1.4564918279647827	-14.80802059173584	-688.7916870117188	-0.0	-0.0	-0.0	-0.0	-0.0	-0.0	-0.0	-0.0	-0.0	-0.0	-0.0	-0.0
0.579	-0.0	-0.0	-0.0	-1.4750394821166992	-14.15335464477539	-682.8369750976562	-0.0	-0.0	-0.0	-0.0	-0.0	-0.0	-0.0	-0.0	-0.0	-0.0	-0.0	-0.0
0.5795	-0.0	-0.0	-0.0	-1.3260444402694702	-12.495591163635254	-679.2129516601562	-0.0	-0.0	-0.0	-0.0	-0.0	-0.0	-0.0	-0.0	-0.0	-0.0	-0.0	-0.0
0.58	-0.0	-0.0	-0.0	-0.8624528646469116	-10.380703926086426	-673.7962646484375	-0.0	-0.0	-0.0	-0.0	-0.0	-0.0	-0.0	-0.0	-0.0	-0.0	-0.0	-0.0
0.5805	-0.0	-0.0	-0.0	0.0534995347261428	-7.772251129150391	-671.2537231445312	-0.0	-0.0	-0.0	-0.0	-0.0	-0.0	-0.0	-0.0	-0.0	-0.0	-0.0	-0.0
0.581	-0.0	-0.0	-0.0	0.83286452293396	-5.645158290863037	-666.780517578125	-0.0	-0.0	-0.0	-0.0	-0.0	-0.0	-0.0	-0.0	-0.0	-0.0	-0.0	-0.0
0.5815	-0.0	-0.0	-0.0	1.3022204637527466	-3.726156234741211	-665.3909912109375	-0.0	-0.0	-0.0	-0.0	-0.0	-0.0	-0.0	-0.0	-0.0	-0.0	-0.0	-0.0
